<svg xmlns="http://www.w3.org/2000/svg" width="717.438" height="557.344" viewBox="0 0 717.438 557.344">
  <defs>
    <style>
      .cls-1 {
        fill-rule: evenodd;
      }
    </style>
  </defs>
  <path id="_" data-name="€" class="cls-1" d="M852.049,487l55.926,124.01h-715.9L248,487H852.049ZM378.172,213.973h76.656V486.527H378.172V213.973h0Zm-128,0h76.656V486.527H250.172V213.973h0Zm521,0h76.656V486.527H771.172V213.973h0Zm-128,0h76.656V486.527H643.172V213.973h0ZM550.062,54.719L849.062,214h-598Zm-68.3,280.011h16q-0.137,2.28-.2,4.422t-0.067,4.422q0,1.878.067,3.685t0.2,3.551h-16v10.853h17.078a78.583,78.583,0,0,0,7.462,23.182A59.313,59.313,0,0,0,519.819,402.4a57.429,57.429,0,0,0,19.363,11.122,75.768,75.768,0,0,0,25.011,3.885q17.21,0,29.784-5.761a58.124,58.124,0,0,0,21.043-16.08l-6.05-7.1a15.522,15.522,0,0,0-3.026-2.814,5.825,5.825,0,0,0-3.294-.938,8.407,8.407,0,0,0-4.908,2.144,65.514,65.514,0,0,1-7.127,4.69,59.5,59.5,0,0,1-10.623,4.69,47.386,47.386,0,0,1-15.262,2.144q-17.346,0-28.036-9.246t-14.186-27.47h45.719a6.67,6.67,0,0,0,4.908-1.943,6.015,6.015,0,0,0,1.949-4.354V350.81H521.3q-0.135-1.74-.2-3.551t-0.068-3.685v-4.489a34.831,34.831,0,0,1,.269-4.355h58.358a6.666,6.666,0,0,0,4.908-1.943,6.015,6.015,0,0,0,1.95-4.355v-4.69H523.046q4.035-17.151,15.195-26.13t29.044-8.977a45.437,45.437,0,0,1,12.909,1.608,52.073,52.073,0,0,1,9.211,3.618q3.833,2.01,6.521,3.617a9.523,9.523,0,0,0,4.707,1.608,7.353,7.353,0,0,0,4.034-1.206,16.053,16.053,0,0,0,3.227-2.679l6.051-6.834a65.4,65.4,0,0,0-20.036-13.735q-11.162-4.89-27.027-4.891a79.652,79.652,0,0,0-25.078,3.752,61.831,61.831,0,0,0-19.968,10.787,60.687,60.687,0,0,0-14.32,17.017,72.7,72.7,0,0,0-8.136,22.445H481.765V334.73Z" transform="translate(-191.312 -54.156)"/>
</svg>
