<svg id="Trasation_banque" data-name="Trasation banque" xmlns="http://www.w3.org/2000/svg" width="2000" height="2000" viewBox="0 0 2000 2000">
  <defs>
    <style>
      .cls-1 {
        fill-rule: evenodd;
      }
    </style>
  </defs>
  <g id="Client">
    <path id="Corp_1" data-name="Corp 1" class="cls-1" d="M509.893,576H160.214C151.346,253.463,518.48,253.21,509.893,576Z"/>
    <circle cx="335" cy="221" r="113"/>
    <path id="Client-2" data-name="Client" class="cls-1" d="M277.32,626.664a27.16,27.16,0,0,1-6.976,3.918,20.9,20.9,0,0,1-7.2,1.245,12.963,12.963,0,0,1-10.694-4.834q-3.882-4.833-3.881-13.293,0-8.5,3.881-13.33a12.963,12.963,0,0,1,10.694-4.834,20.9,20.9,0,0,1,7.2,1.245,27.16,27.16,0,0,1,6.976,3.918V589.383a30.917,30.917,0,0,0-7.306-3.039,30.118,30.118,0,0,0-7.892-1.026q-12.3,0-19.482,7.636T235.462,613.7q0,13.074,7.178,20.709t19.482,7.635a30.117,30.117,0,0,0,7.892-1.025,30.837,30.837,0,0,0,7.306-3.04V626.664Zm9.961,14.318h11.792V584H287.281v56.982Zm23.108,0h11.792V599.967H310.389v41.015Zm0-46.289h11.792V584H310.389v10.693Zm54.73,10.108q-5.219-5.823-13.934-5.823-9.558,0-15.015,5.75t-5.456,15.783q0,10.218,5.548,15.875t15.582,5.658a39.909,39.909,0,0,0,8.368-.9,46.741,46.741,0,0,0,8.368-2.655V628.385a36.788,36.788,0,0,1-8,3.717,25.361,25.361,0,0,1-7.635,1.227,10.418,10.418,0,0,1-7.2-2.308q-2.583-2.307-2.985-6.921h27.576v-3.735Q370.338,610.624,365.119,604.8Zm-22.247,11.206a10.446,10.446,0,0,1,2.691-6.171,7.51,7.51,0,0,1,5.549-2.142,6.444,6.444,0,0,1,5.145,2.289,8.944,8.944,0,0,1,1.959,6.024H342.872Zm70.184-12.671q-3.315-4.357-9.686-4.358a13.208,13.208,0,0,0-6.629,1.7,18.876,18.876,0,0,0-5.676,5.292v-6.006H379.273v41.015h11.792V620.8q0-5.6,2.106-8.771a6.612,6.612,0,0,1,5.8-3.167,5.052,5.052,0,0,1,4.578,2.71,8.507,8.507,0,0,1,.732,2.966q0.22,2.014.22,7.324v19.116H416.37V616.007Q416.37,607.694,413.056,603.336Zm15.326-15.015v11.646h-5.859v9.375h5.859v17.395q0,7.764,2.93,11t9.924,3.241h10.108v-9.375h-6.08q-3.039,0-4.046-1.007t-1.007-3.863V609.342h12.158v-9.375H440.211V588.321H428.382Z"/>
  </g>
  <g id="Fleche_client_commercant" data-name="Fleche client commercant">
    <path id="Triangle_1_copie" data-name="Triangle 1 copie" class="cls-1" d="M352,1210.58a20,20,0,0,1-34,0l-57.068-92.04a20,20,0,0,1,17-30.54H392.068a20,20,0,0,1,17,30.54Z"/>
    <rect id="Rectangle_arrondi_3" data-name="Rectangle arrondi 3" x="316" y="980" width="42" height="107" rx="10" ry="10"/>
    <rect id="Rectangle_arrondi_2_copie" data-name="Rectangle arrondi 2 copie" x="312" y="678" width="46" height="150" rx="10" ry="10"/>
    <path id="Transaction_voulu" data-name="Transaction voulu" class="cls-1" d="M168.164,858.083h12.7V892.32h9.883V858.083h12.675v-8.289H168.164v8.289Zm54.859,1.794q-1.026-.141-1.567-0.185t-1-.042a10.158,10.158,0,0,0-5.511,1.438,12.417,12.417,0,0,0-4.059,4.572v-5.241h-9.172v31.9h9.172v-14.7q0-4.7,1.908-7.22a6.417,6.417,0,0,1,5.441-2.521,9.789,9.789,0,0,1,2.406.3,11.489,11.489,0,0,1,2.407.926Zm22.216,18.087v1.168a7.677,7.677,0,0,1-1.765,5.17,5.516,5.516,0,0,1-4.358,2.065,4.555,4.555,0,0,1-3.247-1.1,3.957,3.957,0,0,1-1.168-3.033,3.728,3.728,0,0,1,1.452-3.19,7.2,7.2,0,0,1,4.33-1.083h4.756Zm5.811-14.911q-3.447-3.4-11.222-3.4a43.213,43.213,0,0,0-5.939.413,48.515,48.515,0,0,0-5.939,1.21v7.776a17.92,17.92,0,0,1,4.728-1.965,21.918,21.918,0,0,1,5.5-.655,9.961,9.961,0,0,1,5.34,1.125,3.928,3.928,0,0,1,1.723,3.546v0.8h-5.411q-7.434,0-10.909,2.621t-3.475,8.231a10.381,10.381,0,0,0,2.777,7.506,9.6,9.6,0,0,0,7.249,2.891,11.1,11.1,0,0,0,5.611-1.325,12.4,12.4,0,0,0,4.158-4.23v4.729H254.5v-18.2Q254.5,866.457,251.05,863.053Zm38.239-.014a8.885,8.885,0,0,0-7.534-3.389,10.27,10.27,0,0,0-5.156,1.324,14.689,14.689,0,0,0-4.415,4.116v-4.671h-9.171v31.9h9.171v-15.7a12.219,12.219,0,0,1,1.638-6.821,5.145,5.145,0,0,1,4.515-2.464,3.928,3.928,0,0,1,3.56,2.108,6.624,6.624,0,0,1,.57,2.307q0.171,1.566.171,5.7V892.32h9.228V872.894Q291.866,866.429,289.289,863.039Zm27.443-2.962a35.225,35.225,0,0,0-5.326-.427q-6.466,0-9.6,2.449t-3.133,7.52q0,4.7,2.463,7.006t8.588,3.162l1.624,0.228a9.212,9.212,0,0,1,3.731,1.04,2.331,2.331,0,0,1,.94,2.036,2.685,2.685,0,0,1-1.367,2.45,7.945,7.945,0,0,1-4.045.826,23.479,23.479,0,0,1-5.853-.741,24.534,24.534,0,0,1-5.626-2.222v7.748a45.673,45.673,0,0,0,6.224,1.5,36.3,36.3,0,0,0,5.882.5q6.721,0,10.111-2.564t3.39-7.662q0-4.87-2.436-7.149t-9.5-3.276l-1.595-.256a8.4,8.4,0,0,1-3.46-.968,2.142,2.142,0,0,1-.955-1.88,2.4,2.4,0,0,1,1.268-2.236,8.07,8.07,0,0,1,3.888-.726,21.457,21.457,0,0,1,5.17.683,31.484,31.484,0,0,1,5.682,2.051v-7.747A52.282,52.282,0,0,0,316.732,860.077Zm32.528,17.887v1.168a7.678,7.678,0,0,1-1.766,5.17,5.516,5.516,0,0,1-4.358,2.065,4.555,4.555,0,0,1-3.247-1.1,3.957,3.957,0,0,1-1.168-3.033,3.726,3.726,0,0,1,1.453-3.19,7.2,7.2,0,0,1,4.329-1.083h4.757Zm5.81-14.911q-3.447-3.4-11.222-3.4a43.213,43.213,0,0,0-5.939.413,48.515,48.515,0,0,0-5.939,1.21v7.776a17.913,17.913,0,0,1,4.729-1.965,21.9,21.9,0,0,1,5.5-.655,9.961,9.961,0,0,1,5.34,1.125,3.928,3.928,0,0,1,1.724,3.546v0.8h-5.412q-7.434,0-10.909,2.621t-3.475,8.231a10.385,10.385,0,0,0,2.777,7.506,9.6,9.6,0,0,0,7.249,2.891,11.1,11.1,0,0,0,5.611-1.325,12.406,12.406,0,0,0,4.159-4.23v4.729h9.257v-18.2Q358.517,866.457,355.07,863.053Zm30.79-2.962a22.481,22.481,0,0,0-4.443-.441q-7.776,0-12.162,4.429T364.868,876.4q0,7.89,4.387,12.319t12.162,4.429a22.769,22.769,0,0,0,4.443-.442,23.173,23.173,0,0,0,4.358-1.324v-8.346a11.53,11.53,0,0,1-3.56,2.108,11.791,11.791,0,0,1-4.1.712,7.451,7.451,0,0,1-5.981-2.492,12.42,12.42,0,0,1,0-13.928,7.452,7.452,0,0,1,5.981-2.493,11.45,11.45,0,0,1,3.917.684,13.922,13.922,0,0,1,3.745,2.108v-8.317A24.164,24.164,0,0,0,385.86,860.091Zm13.1-8.73v9.058h-4.558v7.291h4.558v13.53q0,6.039,2.278,8.559t7.719,2.521h7.861v-7.292h-4.728q-2.364,0-3.147-.783a4.29,4.29,0,0,1-.783-3V867.71h9.456v-7.291h-9.456v-9.058h-9.2ZM423.23,892.32H432.4v-31.9H423.23v31.9Zm0-36H432.4V848H423.23v8.317Zm36.216,13.06q1.581,2.435,1.581,7.021t-1.581,7.021a5.148,5.148,0,0,1-4.6,2.435,5.206,5.206,0,0,1-4.642-2.435q-1.6-2.436-1.6-7.021t1.6-7.021a5.2,5.2,0,0,1,4.642-2.436A5.146,5.146,0,0,1,459.446,869.377Zm-16.206-5.284q-4.2,4.443-4.2,12.305t4.2,12.3q4.2,4.444,11.606,4.444,7.434,0,11.593-4.444t4.159-12.3q0-7.861-4.159-12.305t-11.593-4.443Q447.441,859.65,443.24,864.093Zm60.3-1.054A8.885,8.885,0,0,0,496,859.65a10.266,10.266,0,0,0-5.155,1.324,14.689,14.689,0,0,0-4.415,4.116v-4.671h-9.172v31.9h9.172v-15.7a12.219,12.219,0,0,1,1.638-6.821,5.143,5.143,0,0,1,4.514-2.464,3.928,3.928,0,0,1,3.561,2.108,6.65,6.65,0,0,1,.569,2.307q0.171,1.566.171,5.7V892.32h9.229V872.894Q506.116,866.429,503.538,863.039ZM269.649,962.32h10.083l11.28-31.9h-9.2l-7.121,22.046-7.149-22.046H258.37Zm44.79-22.943q1.581,2.435,1.581,7.021t-1.581,7.021a5.149,5.149,0,0,1-4.6,2.435,5.207,5.207,0,0,1-4.643-2.435q-1.595-2.436-1.6-7.021t1.6-7.021a5.206,5.206,0,0,1,4.643-2.436A5.147,5.147,0,0,1,314.439,939.377Zm-16.207-5.284q-4.2,4.443-4.2,12.305t4.2,12.3q4.2,4.444,11.607,4.444,7.434,0,11.593-4.444t4.158-12.3q0-7.861-4.158-12.305t-11.593-4.443Q302.434,929.65,298.232,934.093Zm36.316,25.663a8.959,8.959,0,0,0,7.562,3.39,10.138,10.138,0,0,0,5.113-1.325,14.77,14.77,0,0,0,4.4-4.116v4.615H360.8v-31.9h-9.171V946.17a12.148,12.148,0,0,1-1.638,6.807,5.149,5.149,0,0,1-4.515,2.45,3.988,3.988,0,0,1-2.079-.541,4.115,4.115,0,0,1-1.481-1.539,6.9,6.9,0,0,1-.613-2.463q-0.184-1.695-.185-5.54,0-1.31.029-5.227t0.028-6.508v-3.19h-9.228V949.9Q331.942,956.368,334.548,959.756Zm35.077,2.564H378.8V918h-9.171v44.32Zm20.266-2.564a8.959,8.959,0,0,0,7.562,3.39,10.138,10.138,0,0,0,5.113-1.325,14.756,14.756,0,0,0,4.4-4.116v4.615h9.172v-31.9h-9.172V946.17a12.148,12.148,0,0,1-1.638,6.807,5.147,5.147,0,0,1-4.514,2.45,3.988,3.988,0,0,1-2.079-.541,4.125,4.125,0,0,1-1.482-1.539,6.9,6.9,0,0,1-.612-2.463q-0.186-1.695-.185-5.54,0-1.31.028-5.227t0.029-6.508v-3.19h-9.229V949.9Q387.284,956.368,389.891,959.756Z"/>
  </g>
  <g id="Commerçant">
    <path id="Corp_1_copie" data-name="Corp 1 copie" class="cls-1" d="M509.893,1722H160.214C151.346,1399.46,518.48,1399.21,509.893,1722Z"/>
    <circle id="Ellipse_1_copie" data-name="Ellipse 1 copie" cx="335" cy="1367" r="113"/>
    <path id="Commerçant-2" data-name="Commerçant" class="cls-1" d="M178.972,1769.18a20.86,20.86,0,0,1-5.426,3.05,16.154,16.154,0,0,1-5.6.97,10.071,10.071,0,0,1-8.317-3.76q-3.019-3.765-3.019-10.34,0-6.615,3.019-10.37a10.1,10.1,0,0,1,8.317-3.76,16.391,16.391,0,0,1,5.6.97,21.155,21.155,0,0,1,5.426,3.05v-8.8a23.722,23.722,0,0,0-5.683-2.37,23.466,23.466,0,0,0-6.138-.79q-9.57,0-15.153,5.93t-5.582,16.14q0,10.17,5.582,16.11t15.153,5.94a23.47,23.47,0,0,0,6.138-.8,23.722,23.722,0,0,0,5.683-2.37v-8.8Zm25.991-11.8q1.579,2.43,1.58,7.02t-1.58,7.02a5.151,5.151,0,0,1-4.6,2.43,5.208,5.208,0,0,1-4.643-2.43q-1.6-2.43-1.595-7.02t1.595-7.02a5.2,5.2,0,0,1,4.643-2.44A5.138,5.138,0,0,1,204.963,1757.38Zm-16.207-5.29q-4.2,4.455-4.2,12.31t4.2,12.3q4.2,4.44,11.607,4.45,7.434,0,11.592-4.45t4.159-12.3q0-7.86-4.159-12.31t-11.592-4.44Q192.956,1747.65,188.756,1752.09Zm57.165-2.85a9.364,9.364,0,0,0-10.1-.22,12.345,12.345,0,0,0-3.874,4.07v-4.67h-9.228v31.9h9.228v-15.69a13.491,13.491,0,0,1,1.439-6.88,4.488,4.488,0,0,1,4.058-2.41,3.052,3.052,0,0,1,2.934,1.52c0.551,1.02.826,3.29,0.826,6.83v16.63h9.229v-15.67a14.044,14.044,0,0,1,1.481-6.92,4.454,4.454,0,0,1,4.016-2.39,3.137,3.137,0,0,1,2.92,1.52,10.158,10.158,0,0,1,.9,4.92q0,0.735-.015,1.14c-0.009.26-.024,0.52-0.042,0.77v16.63h9.228v-19.43q0-6.465-2.592-9.85a8.921,8.921,0,0,0-7.548-3.39,9.519,9.519,0,0,0-5.269,1.55,13.211,13.211,0,0,0-4.13,4.52A9.8,9.8,0,0,0,245.921,1749.24Zm54.688,0a9.366,9.366,0,0,0-10.1-.22,12.342,12.342,0,0,0-3.873,4.07v-4.67h-9.229v31.9h9.229v-15.69a13.492,13.492,0,0,1,1.438-6.88,4.491,4.491,0,0,1,4.059-2.41,3.053,3.053,0,0,1,2.934,1.52c0.55,1.02.826,3.29,0.826,6.83v16.63h9.228v-15.67a14.055,14.055,0,0,1,1.481-6.92,4.455,4.455,0,0,1,4.016-2.39,3.135,3.135,0,0,1,2.92,1.52,10.158,10.158,0,0,1,.9,4.92q0,0.735-.014,1.14c-0.01.26-.024,0.52-0.043,0.77v16.63h9.229v-19.43q0-6.465-2.592-9.85a8.921,8.921,0,0,0-7.548-3.39,9.522,9.522,0,0,0-5.27,1.55,13.211,13.211,0,0,0-4.13,4.52A9.8,9.8,0,0,0,300.609,1749.24Zm56.14,2.94a13.837,13.837,0,0,0-10.838-4.53q-7.434,0-11.678,4.47t-4.244,12.28q0,7.95,4.315,12.35t12.12,4.4a31.383,31.383,0,0,0,6.508-.7,36.883,36.883,0,0,0,6.508-2.07v-7.86a28.343,28.343,0,0,1-6.223,2.89,19.62,19.62,0,0,1-5.939.96,8.093,8.093,0,0,1-5.6-1.8,7.8,7.8,0,0,1-2.321-5.38h21.448v-2.91Q360.808,1756.705,356.749,1752.18Zm-17.3,8.71a8.179,8.179,0,0,1,2.094-4.8,5.837,5.837,0,0,1,4.315-1.66,5,5,0,0,1,4,1.78,6.958,6.958,0,0,1,1.524,4.68H339.445Zm49.618-13.01c-0.684-.1-1.206-0.16-1.567-0.19s-0.693-.04-1-0.04a10.15,10.15,0,0,0-5.511,1.44,12.41,12.41,0,0,0-4.059,4.57v-5.24h-9.171v31.9h9.171v-14.7q0-4.695,1.908-7.22a6.419,6.419,0,0,1,5.441-2.52,9.756,9.756,0,0,1,2.407.3,11.414,11.414,0,0,1,2.406.93Zm23.413,0.21a22.8,22.8,0,0,0-4.443-.44q-7.776,0-12.163,4.43t-4.386,12.32q0,7.89,4.386,12.32t12.163,4.43a22.327,22.327,0,0,0,4.443-.45,22.818,22.818,0,0,0,4.358-1.32v-8.35a11.463,11.463,0,0,1-3.561,2.11,11.666,11.666,0,0,1-4.1.71,7.458,7.458,0,0,1-5.982-2.49,12.424,12.424,0,0,1,0-13.93,7.458,7.458,0,0,1,5.982-2.49,11.586,11.586,0,0,1,3.916.68,14.045,14.045,0,0,1,3.746,2.11v-8.31A24.511,24.511,0,0,0,412.476,1748.09Zm-6.637,32.23a23.963,23.963,0,0,1,1.695,2.88,4.685,4.685,0,0,1,.556,1.9,2.167,2.167,0,0,1-.841,1.8,3.667,3.667,0,0,1-2.321.65,9.946,9.946,0,0,1-1.894-.21,17.287,17.287,0,0,1-2.35-.67l0.028,4.33a21.74,21.74,0,0,0,2.635.56,18.318,18.318,0,0,0,2.521.18,7.6,7.6,0,0,0,4.856-1.29,4.891,4.891,0,0,0,1.581-4.01,6.659,6.659,0,0,0-.712-2.84,15.631,15.631,0,0,0-2.193-3.28h-3.561Zm36.544-14.36v1.17a7.665,7.665,0,0,1-1.766,5.17,5.509,5.509,0,0,1-4.358,2.07,4.564,4.564,0,0,1-3.247-1.1,3.95,3.95,0,0,1-1.168-3.03,3.721,3.721,0,0,1,1.453-3.19,7.209,7.209,0,0,1,4.329-1.09h4.757Zm5.811-14.91q-3.447-3.4-11.223-3.4a43.993,43.993,0,0,0-5.938.41,49.628,49.628,0,0,0-5.939,1.21v7.78a18.135,18.135,0,0,1,4.728-1.97,22.243,22.243,0,0,1,5.5-.65,9.968,9.968,0,0,1,5.341,1.12,3.939,3.939,0,0,1,1.723,3.55v0.8h-5.412q-7.434,0-10.909,2.62c-2.317,1.74-3.475,4.49-3.475,8.23a10.354,10.354,0,0,0,2.777,7.5,9.6,9.6,0,0,0,7.249,2.9,11.139,11.139,0,0,0,5.612-1.33,12.342,12.342,0,0,0,4.158-4.23v4.73h9.257v-18.2Q451.64,1754.455,448.194,1751.05Zm38.238-.01a8.883,8.883,0,0,0-7.534-3.39,10.3,10.3,0,0,0-5.155,1.32,14.81,14.81,0,0,0-4.415,4.12v-4.67h-9.171v31.9h9.171v-15.69a12.259,12.259,0,0,1,1.638-6.83,5.144,5.144,0,0,1,4.514-2.46,4,4,0,0,1,2.094.56,3.944,3.944,0,0,1,1.467,1.55,6.559,6.559,0,0,1,.569,2.3q0.171,1.575.171,5.7v14.87h9.229v-19.43Q489.01,1754.425,486.432,1751.04Zm11.92-11.68v9.06H493.8v7.29h4.557v13.53q0,6.045,2.279,8.56t7.719,2.52h7.861v-7.29h-4.728c-1.576,0-2.625-.26-3.147-0.79a4.272,4.272,0,0,1-.784-3v-13.53h9.457v-7.29h-9.457v-9.06h-9.2Z"/>
  </g>
  <g id="Fleche_client_banque" data-name="Fleche client banque">
    <path id="Triangle_1" data-name="Triangle 1" class="cls-1" d="M1308.48,422.153a20,20,0,0,1,0,34.006l-91.99,56.976a20.006,20.006,0,0,1-30.54-17V382.181a20.007,20.007,0,0,1,30.54-17Z"/>
    <rect id="Rectangle_arrondi_3-2" data-name="Rectangle arrondi 3" x="1076.97" y="418.156" width="107" height="42" rx="10" ry="10"/>
    <path id="Rectangle_arrondi_2" data-name="Rectangle arrondi 2" class="cls-1" d="M581,452.128V426.184a10,10,0,0,1,10-10H720.985a10,10,0,0,1,10,10v25.944a10,10,0,0,1-10,10H591A10,10,0,0,1,581,452.128Z"/>
    <path id="Demande_de_Transaction" data-name="Demande de Transaction" class="cls-1" d="M757.773,334.036q6.933,0,10.563,3.777t3.63,11q0,7.26-3.646,11.068t-10.547,3.808h-4.036V334.036h4.036Zm-15.332,39.128h11.914q9.831,0,14.746-1.579a19.462,19.462,0,0,0,8.431-5.355,21.018,21.018,0,0,0,4.59-7.6,29.85,29.85,0,0,0,1.5-9.815,29.484,29.484,0,0,0-1.5-9.733,21.059,21.059,0,0,0-4.59-7.585,19.268,19.268,0,0,0-8.349-5.354q-4.868-1.579-14.828-1.579H742.441v48.6ZM819.9,341q-4.639-5.176-12.386-5.176-8.5,0-13.347,5.111t-4.85,14.029q0,9.082,4.932,14.112t13.851,5.029a35.5,35.5,0,0,0,7.438-.8,41.661,41.661,0,0,0,7.438-2.36v-8.985a32.675,32.675,0,0,1-7.113,3.3,22.514,22.514,0,0,1-6.787,1.091,9.266,9.266,0,0,1-6.4-2.051,8.928,8.928,0,0,1-2.653-6.152h24.511v-3.321Q824.537,346.179,819.9,341Zm-19.776,9.961a9.286,9.286,0,0,1,2.393-5.485,6.67,6.67,0,0,1,4.932-1.9,5.729,5.729,0,0,1,4.573,2.035,7.949,7.949,0,0,1,1.742,5.355h-13.64Zm58.806-13.314a10.7,10.7,0,0,0-11.54-.261,14.1,14.1,0,0,0-4.427,4.655v-5.338H832.415v36.458h10.547V355.228q0-5.11,1.644-7.861a5.138,5.138,0,0,1,4.638-2.751,3.481,3.481,0,0,1,3.353,1.741q0.944,1.743.944,7.8v19.01h10.547v-17.9q0.064-5.175,1.693-7.91a5.083,5.083,0,0,1,4.59-2.734,3.574,3.574,0,0,1,3.336,1.741,11.559,11.559,0,0,1,1.026,5.616q0,0.846-.017,1.3t-0.048.879v19.01h10.546v-22.2q0-7.389-2.962-11.263t-8.626-3.874A10.835,10.835,0,0,0,867.6,337.6a15.079,15.079,0,0,0-4.72,5.159A11.152,11.152,0,0,0,858.929,337.65Zm56.2,19.108v1.334A8.776,8.776,0,0,1,913.112,364a6.305,6.305,0,0,1-4.981,2.36,5.207,5.207,0,0,1-3.711-1.254,4.52,4.52,0,0,1-1.334-3.466,4.261,4.261,0,0,1,1.66-3.646,8.226,8.226,0,0,1,4.948-1.237h5.436Zm6.64-17.041q-3.939-3.889-12.825-3.89a49.422,49.422,0,0,0-6.787.472,55.481,55.481,0,0,0-6.787,1.383v8.887a20.463,20.463,0,0,1,5.4-2.246,25.07,25.07,0,0,1,6.283-.749q4.134,0,6.1,1.286a4.492,4.492,0,0,1,1.97,4.053v0.911h-6.185q-8.5,0-12.468,3t-3.971,9.408a11.865,11.865,0,0,0,3.174,8.577,10.966,10.966,0,0,0,8.284,3.3,12.679,12.679,0,0,0,6.413-1.514,14.167,14.167,0,0,0,4.753-4.834v5.4h10.579v-20.8Q925.709,343.608,921.77,339.717Zm43.7-.016q-2.947-3.875-8.61-3.874a11.724,11.724,0,0,0-5.892,1.514,16.786,16.786,0,0,0-5.046,4.7v-5.338H935.442v36.458h10.482V355.228q0-4.98,1.872-7.8a5.876,5.876,0,0,1,5.159-2.816,4.491,4.491,0,0,1,4.069,2.409,7.559,7.559,0,0,1,.651,2.636q0.2,1.791.2,6.511v16.992h10.547v-22.2Q968.418,343.575,965.472,339.7Zm30.208-2.36a12.194,12.194,0,0,0-15.983,3.841q-3.891,5.355-3.89,13.785t3.89,13.786a12.253,12.253,0,0,0,16,3.858,14.922,14.922,0,0,0,4.784-4.72v5.273h10.55V322.513h-10.55v19.531A15.127,15.127,0,0,0,995.68,337.341Zm-7.227,25.569q-1.774-2.735-1.774-7.943t1.774-7.942a6.173,6.173,0,0,1,10.254,0q1.774,2.735,1.773,7.942t-1.773,7.943A6.173,6.173,0,0,1,988.453,362.91ZM1049.2,341q-4.65-5.176-12.39-5.176-8.49,0-13.35,5.111-4.845,5.111-4.85,14.029,0,9.082,4.93,14.112t13.86,5.029a35.423,35.423,0,0,0,7.43-.8,41.426,41.426,0,0,0,7.44-2.36v-8.985a32.656,32.656,0,0,1-7.11,3.3,22.5,22.5,0,0,1-6.79,1.091,9.257,9.257,0,0,1-6.39-2.051,8.941,8.941,0,0,1-2.66-6.152h24.51v-3.321Q1053.83,346.179,1049.2,341Zm-19.78,9.961a9.308,9.308,0,0,1,2.39-5.485,6.681,6.681,0,0,1,4.93-1.9,5.739,5.739,0,0,1,4.58,2.035,7.953,7.953,0,0,1,1.74,5.355h-13.64ZM877.6,417.341a12.194,12.194,0,0,0-15.983,3.841q-3.89,5.355-3.89,13.785t3.89,13.786a12.254,12.254,0,0,0,16,3.858,14.935,14.935,0,0,0,4.785-4.72v5.273h10.547V402.513H882.4v19.531A15.142,15.142,0,0,0,877.6,417.341Zm-7.226,25.569q-1.774-2.735-1.774-7.943t1.774-7.942a5.714,5.714,0,0,1,5.094-2.735,5.774,5.774,0,0,1,5.16,2.735q1.773,2.735,1.774,7.942t-1.774,7.943a5.774,5.774,0,0,1-5.16,2.735A5.714,5.714,0,0,1,870.371,442.91ZM931.113,421q-4.638-5.176-12.386-5.176-8.5,0-13.346,5.111t-4.851,14.029q0,9.082,4.932,14.112t13.851,5.029a35.5,35.5,0,0,0,7.438-.8,41.636,41.636,0,0,0,7.438-2.36v-8.985a32.669,32.669,0,0,1-7.112,3.3,22.525,22.525,0,0,1-6.788,1.091,9.266,9.266,0,0,1-6.4-2.051,8.928,8.928,0,0,1-2.653-6.152h24.512v-3.321Q935.752,426.179,931.113,421Zm-19.775,9.961a9.285,9.285,0,0,1,2.392-5.485,6.673,6.673,0,0,1,4.932-1.9,5.729,5.729,0,0,1,4.573,2.035,7.949,7.949,0,0,1,1.742,5.355H911.338ZM701.523,494.036h14.518v39.128h11.3V494.036h14.486v-9.472h-40.3v9.472Zm62.7,2.051q-1.173-.162-1.791-0.211t-1.139-.049a11.612,11.612,0,0,0-6.3,1.644,14.2,14.2,0,0,0-4.639,5.224v-5.989H739.87v36.458h10.481v-16.8q0-5.372,2.181-8.252a7.337,7.337,0,0,1,6.218-2.881,11.157,11.157,0,0,1,2.75.342,13.137,13.137,0,0,1,2.751,1.058Zm25.39,20.671v1.334A8.776,8.776,0,0,1,787.591,524a6.305,6.305,0,0,1-4.981,2.36,5.2,5.2,0,0,1-3.71-1.254,4.517,4.517,0,0,1-1.335-3.466,4.261,4.261,0,0,1,1.66-3.646,8.231,8.231,0,0,1,4.948-1.237h5.436Zm6.641-17.041q-3.939-3.889-12.826-3.89a49.433,49.433,0,0,0-6.787.472,55.519,55.519,0,0,0-6.787,1.383v8.887a20.455,20.455,0,0,1,5.4-2.246,25.056,25.056,0,0,1,6.282-.749q4.134,0,6.1,1.286a4.49,4.49,0,0,1,1.969,4.053v0.911h-6.185q-8.5,0-12.467,2.995t-3.972,9.408a11.865,11.865,0,0,0,3.174,8.577,10.968,10.968,0,0,0,8.285,3.3,12.682,12.682,0,0,0,6.413-1.514,14.174,14.174,0,0,0,4.752-4.834v5.4h10.58v-20.8Q800.189,503.607,796.25,499.717Zm43.7-.016q-2.946-3.875-8.61-3.874a11.724,11.724,0,0,0-5.892,1.514,16.786,16.786,0,0,0-5.046,4.7v-5.338H809.922v36.458H820.4V515.228q0-4.98,1.872-7.8a5.879,5.879,0,0,1,5.16-2.816,4.494,4.494,0,0,1,4.069,2.409,7.581,7.581,0,0,1,.651,2.636q0.195,1.791.2,6.511v16.992H842.9v-22.2Q842.9,503.573,839.951,499.7Zm31.364-3.386a40.346,40.346,0,0,0-6.087-.488q-7.39,0-10.97,2.8t-3.581,8.594q0,5.371,2.816,8.008t9.814,3.613l1.856,0.261a10.516,10.516,0,0,1,4.264,1.188,2.666,2.666,0,0,1,1.074,2.327,3.07,3.07,0,0,1-1.562,2.8,9.087,9.087,0,0,1-4.623.944,26.811,26.811,0,0,1-6.689-.847,28.065,28.065,0,0,1-6.429-2.539v8.854a52.088,52.088,0,0,0,7.112,1.709,41.429,41.429,0,0,0,6.722.57q7.683,0,11.556-2.93t3.874-8.756q0-5.567-2.783-8.171t-10.856-3.743L865,510.215a9.6,9.6,0,0,1-3.955-1.107,2.446,2.446,0,0,1-1.091-2.148A2.749,2.749,0,0,1,861.4,504.4a9.22,9.22,0,0,1,4.443-.83,24.574,24.574,0,0,1,5.908.781,36.051,36.051,0,0,1,6.494,2.344v-8.854A59.967,59.967,0,0,0,871.315,496.315Zm37.174,20.443v1.334A8.776,8.776,0,0,1,906.471,524a6.3,6.3,0,0,1-4.98,2.36,5.2,5.2,0,0,1-3.711-1.254,4.521,4.521,0,0,1-1.335-3.466,4.261,4.261,0,0,1,1.66-3.646,8.231,8.231,0,0,1,4.948-1.237h5.436Zm6.641-17.041q-3.939-3.889-12.826-3.89a49.433,49.433,0,0,0-6.787.472,55.519,55.519,0,0,0-6.787,1.383v8.887a20.455,20.455,0,0,1,5.4-2.246,25.056,25.056,0,0,1,6.282-.749q4.134,0,6.1,1.286a4.49,4.49,0,0,1,1.969,4.053v0.911H902.3q-8.5,0-12.467,2.995t-3.971,9.408a11.869,11.869,0,0,0,3.173,8.577,10.968,10.968,0,0,0,8.285,3.3,12.682,12.682,0,0,0,6.413-1.514,14.165,14.165,0,0,0,4.752-4.834v5.4h10.58v-20.8Q919.069,503.607,915.13,499.717Zm35.189-3.386a25.706,25.706,0,0,0-5.078-.5q-8.887,0-13.9,5.062t-5.013,14.078q0,9.018,5.013,14.079t13.9,5.062a26.03,26.03,0,0,0,5.078-.5,26.6,26.6,0,0,0,4.98-1.514v-9.538a13.16,13.16,0,0,1-4.069,2.409,13.465,13.465,0,0,1-4.687.814,8.514,8.514,0,0,1-6.836-2.849q-2.442-2.847-2.442-7.959t2.442-7.959a8.519,8.519,0,0,1,6.836-2.848,13.114,13.114,0,0,1,4.476.781,15.926,15.926,0,0,1,4.28,2.409v-9.5A27.683,27.683,0,0,0,950.319,496.331Zm14.974-9.977v10.352h-5.209v8.333h5.209V520.5q0,6.9,2.6,9.782t8.822,2.881H985.7v-8.333h-5.4q-2.7,0-3.6-.895t-0.895-3.435V505.039h10.807v-8.333H975.807V486.354H965.293Zm27.734,46.81h10.483V496.706H993.027v36.458Zm0-41.146h10.483v-9.5H993.027v9.5Zm41.393,14.925q1.8,2.784,1.8,8.024t-1.8,8.025a5.894,5.894,0,0,1-5.26,2.783,5.966,5.966,0,0,1-5.31-2.783q-1.815-2.784-1.82-8.025t1.82-8.024a5.966,5.966,0,0,1,5.31-2.783A5.894,5.894,0,0,1,1034.42,506.943Zm-18.53-6.038q-4.8,5.078-4.8,14.062t4.8,14.063q4.815,5.077,13.27,5.078,8.49,0,13.25-5.078t4.75-14.063q0-8.983-4.75-14.062t-13.25-5.078Q1020.7,495.827,1015.89,500.905Zm68.92-1.2q-2.955-3.875-8.61-3.874a11.69,11.69,0,0,0-5.89,1.514,16.75,16.75,0,0,0-5.05,4.7v-5.338h-10.48v36.458h10.48V515.228q0-4.98,1.87-7.8a5.883,5.883,0,0,1,5.16-2.816,4.5,4.5,0,0,1,4.07,2.409,7.653,7.653,0,0,1,.65,2.636q0.2,1.791.2,6.511v16.992h10.54v-22.2Q1087.75,503.573,1084.81,499.7Z"/>
  </g>
  <g id="Fleche_banque_commercant" data-name="Fleche banque commercant">
    <path id="Triangle_1-2" data-name="Triangle 1" class="cls-1" d="M579.643,1672.81a20,20,0,0,1,0-34.02l91.978-56.9a20,20,0,0,1,30.522,17.01v113.8a20,20,0,0,1-30.522,17.01Z"/>
    <path id="Rectangle_arrondi_2-2" data-name="Rectangle arrondi 2" class="cls-1" d="M1307.15,1642.85v25.9a10,10,0,0,1-10,10h-130a10,10,0,0,1-10-10v-25.9a10,10,0,0,1,10-10h130A10,10,0,0,1,1307.15,1642.85Z"/>
    <rect id="Rectangle_arrondi_3-3" data-name="Rectangle arrondi 3" x="703" y="1635" width="107" height="42" rx="10" ry="10"/>
    <path id="Accusée_de_Reception" data-name="Accusée de Reception" class="cls-1" d="M888.917,1590.85h11.362l-16.213-48.55H870.621l-16.212,48.55h11.329l2.8-8.85h17.644Zm-11.557-37.17,5.958,19.32H871.337Zm49.744,0.37a26.172,26.172,0,0,0-5.079-.5q-8.887,0-13.9,5.06t-5.013,14.06q0,9.015,5.013,14.06,5.013,5.07,13.9,5.06a26.074,26.074,0,0,0,10.06-2.02v-9.52a13.177,13.177,0,0,1-4.07,2.4,13.31,13.31,0,0,1-4.688.82,8.516,8.516,0,0,1-6.836-2.85q-2.442-2.85-2.442-7.95t2.442-7.95a8.516,8.516,0,0,1,6.836-2.85,13.124,13.124,0,0,1,4.477.79,16,16,0,0,1,4.281,2.4v-9.49A27.344,27.344,0,0,0,927.1,1554.05Zm35.55,0a26.172,26.172,0,0,0-5.079-.5q-8.888,0-13.9,5.06t-5.013,14.06q0,9.015,5.013,14.06,5.013,5.07,13.9,5.06a26.074,26.074,0,0,0,10.06-2.02v-9.52a13.257,13.257,0,0,1-8.758,3.22,8.516,8.516,0,0,1-6.836-2.85q-2.442-2.85-2.442-7.95t2.442-7.95a8.516,8.516,0,0,1,6.836-2.85,13.124,13.124,0,0,1,4.477.79,16.014,16.014,0,0,1,4.281,2.4v-9.49A27.344,27.344,0,0,0,962.654,1554.05Zm16.651,33.87q2.979,3.87,8.644,3.87a11.572,11.572,0,0,0,5.843-1.51,16.953,16.953,0,0,0,5.03-4.7v5.27H1009.3v-36.42H998.822v17.98q0,4.98-1.872,7.77a5.879,5.879,0,0,1-5.16,2.8,4.585,4.585,0,0,1-2.376-.62,4.694,4.694,0,0,1-1.693-1.76,7.809,7.809,0,0,1-.7-2.81q-0.211-1.935-.212-6.32,0-1.5.033-5.97t0.032-7.43v-3.64H976.327v22.24Q976.327,1584.05,979.305,1587.92Zm58.775-33.88a39.57,39.57,0,0,0-6.08-.49q-7.395,0-10.98,2.8-3.57,2.79-3.58,8.58c0,3.58.94,6.24,2.82,8s5.15,2.96,9.81,3.61l1.86,0.26a10.513,10.513,0,0,1,4.27,1.19,2.666,2.666,0,0,1,1.07,2.32,3.067,3.067,0,0,1-1.56,2.8,9.13,9.13,0,0,1-4.63.94,27.135,27.135,0,0,1-6.69-.84,28.489,28.489,0,0,1-6.43-2.54v8.84a52.382,52.382,0,0,0,7.12,1.71,41.386,41.386,0,0,0,6.72.57q7.68,0,11.56-2.93t3.87-8.74q0-5.565-2.78-8.16t-10.86-3.74l-1.82-.3a9.679,9.679,0,0,1-3.96-1.1,2.449,2.449,0,0,1-1.09-2.15,2.73,2.73,0,0,1,1.45-2.55,9.274,9.274,0,0,1,4.44-.83,24.523,24.523,0,0,1,5.91.78,36.048,36.048,0,0,1,6.5,2.34v-8.84A57.7,57.7,0,0,0,1038.08,1554.04Zm45.14,4.68q-4.635-5.175-12.39-5.17-8.49,0-13.34,5.11t-4.85,14.01q0,9.075,4.93,14.1t13.85,5.02a35,35,0,0,0,7.44-.8,41.808,41.808,0,0,0,7.44-2.35v-8.98a31.981,31.981,0,0,1-7.12,3.3,22.42,22.42,0,0,1-6.78,1.09,9.251,9.251,0,0,1-6.4-2.05,8.855,8.855,0,0,1-2.65-6.14h24.51v-3.32Q1087.86,1563.885,1083.22,1558.72Zm-19.78,9.95a9.322,9.322,0,0,1,2.4-5.48,6.662,6.662,0,0,1,4.93-1.9,5.733,5.733,0,0,1,4.57,2.03,7.953,7.953,0,0,1,1.74,5.35h-13.64Zm3.65-18.86h5.76l10.81-12.23h-8.3Zm56.82,8.91q-4.635-5.175-12.38-5.17-8.505,0-13.35,5.11t-4.85,14.01q0,9.075,4.93,14.1t13.85,5.02a34.863,34.863,0,0,0,7.44-.8,41.3,41.3,0,0,0,7.44-2.35v-8.98a32.125,32.125,0,0,1-7.11,3.3,22.483,22.483,0,0,1-6.79,1.09,9.251,9.251,0,0,1-6.4-2.05,8.9,8.9,0,0,1-2.65-6.14h24.51v-3.32Q1128.55,1563.885,1123.91,1558.72Zm-19.77,9.95a9.255,9.255,0,0,1,2.39-5.48,6.662,6.662,0,0,1,4.93-1.9,5.767,5.767,0,0,1,4.58,2.03,7.953,7.953,0,0,1,1.74,5.35h-13.64Zm-130.6,66.31a12.218,12.218,0,0,0-15.984,3.83q-3.891,5.355-3.89,13.78t3.89,13.77a12.253,12.253,0,0,0,16,3.85,14.935,14.935,0,0,0,4.785-4.72v5.27h10.548v-50.59H978.345v19.51A15.1,15.1,0,0,0,973.543,1634.98Zm-7.227,25.54c-1.183-1.82-1.774-4.47-1.774-7.93s0.591-6.12,1.774-7.94a5.718,5.718,0,0,1,5.095-2.73,5.776,5.776,0,0,1,5.16,2.73q1.774,2.73,1.774,7.94c0,3.46-.591,6.11-1.774,7.93a5.776,5.776,0,0,1-5.16,2.73A5.718,5.718,0,0,1,966.316,1660.52Zm60.744-21.88q-4.635-5.175-12.38-5.17-8.5,0-13.35,5.1t-4.852,14.02q0,9.06,4.932,14.09t13.85,5.03a35.517,35.517,0,0,0,7.44-.8,41.346,41.346,0,0,0,7.44-2.36v-8.97a33.059,33.059,0,0,1-7.11,3.3,22.8,22.8,0,0,1-6.79,1.09,9.3,9.3,0,0,1-6.4-2.05,8.944,8.944,0,0,1-2.65-6.15h24.51v-3.31Q1031.7,1643.805,1027.06,1638.64Zm-19.77,9.95a9.2,9.2,0,0,1,2.39-5.48,6.669,6.669,0,0,1,4.93-1.91,5.744,5.744,0,0,1,4.58,2.04,7.918,7.918,0,0,1,1.74,5.35h-13.64Zm-167.319,75.07V1711.2h4.753q3.516,0,5.062,1.43t1.546,4.75c0,2.23-.515,3.84-1.546,4.81s-2.718,1.47-5.062,1.47h-4.753Zm3.19,8.64a6.807,6.807,0,0,1,4.4,1.34,13.547,13.547,0,0,1,3.288,4.97l5.307,12.07h12.012l-6.12-13.79a24.467,24.467,0,0,0-3.7-6.26,8.228,8.228,0,0,0-4.151-2.65,12.081,12.081,0,0,0,6.316-4.55,13.864,13.864,0,0,0,2.083-7.9q0-6.96-4.02-10.18t-12.68-3.22H828.674v48.55h11.3V1732.3h3.19Zm59.364-13.75q-4.639-5.175-12.387-5.17-8.5,0-13.348,5.1-4.851,5.115-4.85,14.02,0,9.075,4.932,14.1t13.852,5.02a35.593,35.593,0,0,0,7.439-.8,41.534,41.534,0,0,0,7.438-2.35v-8.98a32.123,32.123,0,0,1-7.113,3.3,22.456,22.456,0,0,1-6.788,1.09,9.254,9.254,0,0,1-6.4-2.05,8.9,8.9,0,0,1-2.653-6.14h24.514v-3.32Q907.164,1723.715,902.525,1718.55Zm-19.777,9.95a9.287,9.287,0,0,1,2.393-5.48,6.667,6.667,0,0,1,4.932-1.9,5.747,5.747,0,0,1,4.574,2.03,7.954,7.954,0,0,1,1.741,5.35h-13.64Zm53.878-14.62a26.154,26.154,0,0,0-5.078-.5q-8.887,0-13.9,5.06t-5.014,14.06q0,9,5.014,14.06t13.9,5.06a26.074,26.074,0,0,0,10.059-2.02v-9.52a13.184,13.184,0,0,1-4.069,2.4,13.544,13.544,0,0,1-4.688.82,8.518,8.518,0,0,1-6.837-2.85q-2.441-2.85-2.441-7.95t2.441-7.95a8.518,8.518,0,0,1,6.837-2.85,13.108,13.108,0,0,1,4.476.78,16.044,16.044,0,0,1,4.281,2.41v-9.49A27.344,27.344,0,0,0,936.626,1713.88Zm42.142,4.67q-4.638-5.175-12.387-5.17-8.5,0-13.347,5.1-4.851,5.115-4.851,14.02,0,9.075,4.932,14.1t13.852,5.02a35.586,35.586,0,0,0,7.439-.8,41.518,41.518,0,0,0,7.439-2.35v-8.98a32.144,32.144,0,0,1-7.113,3.3,22.461,22.461,0,0,1-6.788,1.09,9.252,9.252,0,0,1-6.4-2.05,8.891,8.891,0,0,1-2.653-6.14h24.513v-3.32Q983.407,1723.715,978.768,1718.55Zm-19.777,9.95a9.293,9.293,0,0,1,2.393-5.48,6.67,6.67,0,0,1,4.932-1.9,5.745,5.745,0,0,1,4.574,2.03,7.949,7.949,0,0,1,1.742,5.35H958.991Zm47.659,21.61a12.254,12.254,0,0,0,16.02-3.84c2.6-3.56,3.91-8.16,3.91-13.77s-1.31-10.2-3.91-13.77a12.254,12.254,0,0,0-16.02-3.84,15.176,15.176,0,0,0-4.82,4.7v-5.33H991.351v50.27h10.479v-19.12A15.176,15.176,0,0,0,1006.65,1750.11Zm7.31-25.54q1.77,2.73,1.77,7.93t-1.77,7.93a6.222,6.222,0,0,1-10.32-.01c-1.2-1.83-1.81-4.47-1.81-7.92s0.61-6.09,1.81-7.92A6.222,6.222,0,0,1,1013.96,1724.57Zm21.27-20.65v10.34h-5.2v8.32h5.2v15.45q0,6.885,2.61,9.77t8.82,2.88h8.99v-8.33h-5.41c-1.8,0-3-.3-3.59-0.89s-0.9-1.74-.9-3.43v-15.45h10.81v-8.32h-10.81v-10.34h-10.52Zm27.74,46.76h10.48v-36.42h-10.48v36.42Zm0-41.1h10.48v-9.5h-10.48v9.5Zm41.39,14.9q1.815,2.79,1.81,8.02t-1.81,8.02a5.874,5.874,0,0,1-5.25,2.78,5.962,5.962,0,0,1-5.31-2.78q-1.815-2.79-1.82-8.02t1.82-8.02a5.962,5.962,0,0,1,5.31-2.78A5.874,5.874,0,0,1,1104.36,1724.48Zm-18.52-6.03q-4.8,5.07-4.8,14.05t4.8,14.05q4.8,5.07,13.27,5.07,8.49,0,13.25-5.07t4.75-14.05q0-8.97-4.75-14.05t-13.25-5.07Q1090.635,1713.38,1085.84,1718.45Zm68.92-1.2q-2.94-3.87-8.61-3.87a11.714,11.714,0,0,0-5.89,1.51,16.826,16.826,0,0,0-5.05,4.7v-5.33h-10.48v36.42h10.48v-17.92c0-3.32.62-5.91,1.87-7.79a5.893,5.893,0,0,1,5.16-2.81,4.448,4.448,0,0,1,4.07,2.41,7.385,7.385,0,0,1,.65,2.63q0.195,1.785.2,6.5v16.98h10.55V1728.5Q1157.71,1721.12,1154.76,1717.25Z"/>
  </g>
  <g id="Banque_commerçant" data-name="Banque commerçant">
    <path id="Banque_commerçant-2" data-name="Banque commerçant" class="cls-1" d="M1785.03,1618.98l36.91,102.73H1349.51l36.91-102.73h398.61ZM1472.32,1392.8h50.58v225.79h-50.58V1392.8h0Zm-84.47,0h50.59v225.79h-50.59V1392.8h0Zm343.81,0h50.59v225.79h-50.59V1392.8h0Zm-84.47,0h50.59v225.79h-50.59V1392.8h0Zm-61.44-131.92,197.31,131.93H1388.44Zm-45.07,231.96h10.56c-0.06,1.26-.1,2.48-0.13,3.66s-0.05,2.41-.05,3.66c0,1.04.02,2.06,0.05,3.06s0.07,1.98.13,2.94h-10.56v8.99h11.27a77.832,77.832,0,0,0,4.92,19.2,49.565,49.565,0,0,0,8.92,14.55,37.14,37.14,0,0,0,12.78,9.21,40.887,40.887,0,0,0,16.5,3.22q11.37,0,19.66-4.78a40.845,40.845,0,0,0,13.89-13.32l-4-5.88a11.818,11.818,0,0,0-1.99-2.33,3.294,3.294,0,0,0-2.18-.78,5.1,5.1,0,0,0-3.24,1.78,43.592,43.592,0,0,1-4.7,3.88,35.476,35.476,0,0,1-7.01,3.89,25.531,25.531,0,0,1-10.07,1.77q-11.445,0-18.5-7.65-7.05-7.665-9.36-22.76h30.17a4,4,0,0,0,3.24-1.61,5.673,5.673,0,0,0,1.28-3.61v-3.77h-35.49c-0.06-.96-0.11-1.94-0.13-2.94s-0.05-2.02-.05-3.06v-3.71a35.616,35.616,0,0,1,.18-3.61h38.51a4,4,0,0,0,3.24-1.61,5.617,5.617,0,0,0,1.28-3.61v-3.88h-41.88q2.67-14.22,10.03-21.65t19.17-7.44a24.41,24.41,0,0,1,8.51,1.33,30.479,30.479,0,0,1,6.08,3c1.69,1.11,3.12,2.11,4.31,3a5.426,5.426,0,0,0,3.1,1.33,4.143,4.143,0,0,0,2.66-1,11.163,11.163,0,0,0,2.13-2.22l4-5.66a44.53,44.53,0,0,0-13.22-11.38q-7.38-4.05-17.84-4.05a42.875,42.875,0,0,0-16.55,3.11,39.214,39.214,0,0,0-13.18,8.93,49.612,49.612,0,0,0-9.45,14.1,71.085,71.085,0,0,0-5.37,18.6h-11.62v9.1Z"/>
    <path id="Banque_commerçant-3" data-name="Banque  commerçant" class="cls-1" d="M1496.32,1746.26v-9h5.44a4.93,4.93,0,0,1,3.54,1.15,5.256,5.256,0,0,1,0,6.71,4.973,4.973,0,0,1-3.54,1.14h-5.44Zm0,18.6v-11.14h5.78a6.392,6.392,0,0,1,4.48,1.38,5.362,5.362,0,0,1,1.5,4.15,5.475,5.475,0,0,1-1.5,4.21,6.347,6.347,0,0,1-4.48,1.4h-5.78Zm18.75-18.53a10.084,10.084,0,0,0,1.3-5.28c0-3.94-1.19-6.79-3.58-8.58s-6.23-2.68-11.55-2.68h-14.81v42.53h16.38q7.635,0,11.38-3.02t3.74-9.17a12.468,12.468,0,0,0-1.73-6.78,8.858,8.858,0,0,0-4.93-3.79A7.767,7.767,0,0,0,1515.07,1746.33Zm28.59,11.63v1.17a7.653,7.653,0,0,1-1.77,5.17,5.515,5.515,0,0,1-4.36,2.07,4.567,4.567,0,0,1-3.25-1.1,3.978,3.978,0,0,1-1.16-3.03,3.714,3.714,0,0,1,1.45-3.19,7.213,7.213,0,0,1,4.33-1.09h4.76Zm5.81-14.91q-3.45-3.4-11.23-3.4a44.146,44.146,0,0,0-5.94.41,49.487,49.487,0,0,0-5.93,1.21v7.78a18.054,18.054,0,0,1,4.72-1.97,22.3,22.3,0,0,1,5.5-.65,9.971,9.971,0,0,1,5.34,1.12,3.942,3.942,0,0,1,1.73,3.55v0.8h-5.42q-7.425,0-10.91,2.62c-2.31,1.74-3.47,4.49-3.47,8.23a10.36,10.36,0,0,0,2.78,7.5,9.581,9.581,0,0,0,7.25,2.9,11.141,11.141,0,0,0,5.61-1.33,12.47,12.47,0,0,0,4.16-4.23v4.73h9.25v-18.2Q1552.91,1746.455,1549.47,1743.05Zm38.23-.01a8.869,8.869,0,0,0-7.53-3.39,10.321,10.321,0,0,0-5.16,1.32,14.928,14.928,0,0,0-4.41,4.12v-4.67h-9.17v31.9h9.17v-15.69a12.275,12.275,0,0,1,1.64-6.83,5.133,5.133,0,0,1,4.51-2.46,4.022,4.022,0,0,1,2.1.56,3.97,3.97,0,0,1,1.46,1.55,6.4,6.4,0,0,1,.57,2.3c0.12,1.05.17,2.95,0.17,5.7v14.87h9.23v-19.43Q1590.28,1746.425,1587.7,1743.04Zm29.09,6.41q1.545,2.385,1.55,6.95c0,3.04-.52,5.35-1.55,6.95a5.068,5.068,0,0,1-4.52,2.39,5.015,5.015,0,0,1-4.46-2.39c-1.03-1.6-1.55-3.91-1.55-6.95s0.52-5.36,1.55-6.95a4.994,4.994,0,0,1,4.46-2.39A5.048,5.048,0,0,1,1616.79,1749.45Zm1.55,35h9.23v-44.03h-9.23v4.73a13,13,0,0,0-4.19-4.13,10.753,10.753,0,0,0-14,3.34q-3.4,4.665-3.4,12.04t3.4,12.06a10.357,10.357,0,0,0,8.7,4.69,10.467,10.467,0,0,0,5.3-1.31,13.107,13.107,0,0,0,4.19-4.13v16.74Zm20.32-14.69a8.964,8.964,0,0,0,7.56,3.39,10.206,10.206,0,0,0,5.12-1.33,14.846,14.846,0,0,0,4.4-4.11v4.61h9.17v-31.9h-9.17v15.75a12.179,12.179,0,0,1-1.64,6.81,5.161,5.161,0,0,1-4.52,2.45,4.006,4.006,0,0,1-2.08-.54,4.216,4.216,0,0,1-1.48-1.54,7.023,7.023,0,0,1-.61-2.47c-0.12-1.13-.18-2.97-0.18-5.54,0-.87.01-2.61,0.02-5.22s0.03-4.78.03-6.51v-3.19h-9.23v19.48Q1636.05,1766.365,1638.66,1769.76Zm59.67-25.58a13.831,13.831,0,0,0-10.84-4.53q-7.425,0-11.67,4.47t-4.25,12.28q0,7.95,4.32,12.35,4.3,4.395,12.12,4.4a31.475,31.475,0,0,0,6.51-.7,36.8,36.8,0,0,0,6.5-2.07v-7.86a28.24,28.24,0,0,1-6.22,2.89,19.6,19.6,0,0,1-5.94.96,8.106,8.106,0,0,1-5.6-1.8,7.842,7.842,0,0,1-2.32-5.38h21.45v-2.91Q1702.39,1748.705,1698.33,1744.18Zm-17.3,8.71a8.152,8.152,0,0,1,2.09-4.8,5.841,5.841,0,0,1,4.32-1.66,5.007,5.007,0,0,1,4,1.78,6.936,6.936,0,0,1,1.52,4.68h-11.93Zm-248.02,37.2a22.739,22.739,0,0,0-4.44-.44q-7.77,0-12.16,4.43t-4.39,12.32q0,7.89,4.39,12.32t12.16,4.43a22.3,22.3,0,0,0,4.44-.45,22.772,22.772,0,0,0,4.36-1.32v-8.35a11.447,11.447,0,0,1-3.56,2.11,11.668,11.668,0,0,1-4.1.71,7.452,7.452,0,0,1-5.98-2.49,12.4,12.4,0,0,1,0-13.93,7.452,7.452,0,0,1,5.98-2.49,11.63,11.63,0,0,1,3.92.68,13.985,13.985,0,0,1,3.74,2.11v-8.31A24.506,24.506,0,0,0,1433.01,1790.09Zm30.52,9.29c1.06,1.62,1.58,3.96,1.58,7.02s-0.52,5.4-1.58,7.02a5.149,5.149,0,0,1-4.6,2.43,5.2,5.2,0,0,1-4.64-2.43c-1.06-1.62-1.6-3.96-1.6-7.02s0.54-5.4,1.6-7.02a5.191,5.191,0,0,1,4.64-2.44A5.136,5.136,0,0,1,1463.53,1799.38Zm-16.2-5.29q-4.215,4.455-4.21,12.31t4.21,12.3q4.2,4.44,11.6,4.45,7.44,0,11.59-4.45,4.17-4.44,4.16-12.3t-4.16-12.31q-4.155-4.44-11.59-4.44Q1451.52,1789.65,1447.33,1794.09Zm57.16-2.85a9.37,9.37,0,0,0-10.1-.22,12.356,12.356,0,0,0-3.87,4.07v-4.67h-9.23v31.9h9.23v-15.69a13.48,13.48,0,0,1,1.44-6.88,4.49,4.49,0,0,1,4.06-2.41,3.051,3.051,0,0,1,2.93,1.52c0.55,1.02.83,3.29,0.83,6.83v16.63h9.23v-15.67a13.957,13.957,0,0,1,1.48-6.92,4.444,4.444,0,0,1,4.01-2.39,3.136,3.136,0,0,1,2.92,1.52,10.129,10.129,0,0,1,.9,4.92c0,0.49-.01.87-0.01,1.14s-0.03.52-.05,0.77v16.63h9.23v-19.43q0-6.465-2.59-9.85a8.92,8.92,0,0,0-7.55-3.39,9.529,9.529,0,0,0-5.27,1.55,13.28,13.28,0,0,0-4.13,4.52A9.8,9.8,0,0,0,1504.49,1791.24Zm54.69,0a9.369,9.369,0,0,0-10.1-.22,12.356,12.356,0,0,0-3.87,4.07v-4.67h-9.23v31.9h9.23v-15.69a13.48,13.48,0,0,1,1.44-6.88,4.475,4.475,0,0,1,4.05-2.41,3.057,3.057,0,0,1,2.94,1.52c0.55,1.02.82,3.29,0.82,6.83v16.63h9.23v-15.67a14.067,14.067,0,0,1,1.48-6.92,4.459,4.459,0,0,1,4.02-2.39,3.136,3.136,0,0,1,2.92,1.52,10.129,10.129,0,0,1,.9,4.92c0,0.49-.01.87-0.02,1.14s-0.02.52-.04,0.77v16.63h9.23v-19.43q0-6.465-2.59-9.85a8.933,8.933,0,0,0-7.55-3.39,9.505,9.505,0,0,0-5.27,1.55,13.181,13.181,0,0,0-4.13,4.52A9.8,9.8,0,0,0,1559.18,1791.24Zm56.14,2.94a13.845,13.845,0,0,0-10.84-4.53q-7.44,0-11.68,4.47t-4.24,12.28q0,7.95,4.31,12.35t12.12,4.4a31.329,31.329,0,0,0,6.51-.7,36.642,36.642,0,0,0,6.51-2.07v-7.86a28.451,28.451,0,0,1-6.22,2.89,19.7,19.7,0,0,1-5.94.96,8.106,8.106,0,0,1-5.6-1.8,7.8,7.8,0,0,1-2.32-5.38h21.45v-2.91Q1619.38,1798.705,1615.32,1794.18Zm-17.3,8.71a8.152,8.152,0,0,1,2.09-4.8,5.833,5.833,0,0,1,4.31-1.66,5.013,5.013,0,0,1,4.01,1.78,6.987,6.987,0,0,1,1.52,4.68h-11.93Zm49.61-13.01c-0.68-.1-1.2-0.16-1.56-0.19s-0.7-.04-1-0.04a10.141,10.141,0,0,0-5.51,1.44,12.429,12.429,0,0,0-4.06,4.57v-5.24h-9.17v31.9h9.17v-14.7c0-3.13.63-5.54,1.91-7.22a6.408,6.408,0,0,1,5.44-2.52,9.683,9.683,0,0,1,2.4.3,11.465,11.465,0,0,1,2.41.93Zm23.42,0.21a22.917,22.917,0,0,0-4.45-.44q-7.77,0-12.16,4.43t-4.39,12.32q0,7.89,4.39,12.32t12.16,4.43a23.3,23.3,0,0,0,8.8-1.77v-8.35a11.447,11.447,0,0,1-3.56,2.11,11.668,11.668,0,0,1-4.1.71,7.452,7.452,0,0,1-5.98-2.49,12.4,12.4,0,0,1,0-13.93,7.452,7.452,0,0,1,5.98-2.49,11.587,11.587,0,0,1,3.92.68,13.985,13.985,0,0,1,3.74,2.11v-8.31A24.407,24.407,0,0,0,1671.05,1790.09Zm-6.64,32.23a23.825,23.825,0,0,1,1.69,2.88,4.7,4.7,0,0,1,.56,1.9,2.166,2.166,0,0,1-.84,1.8,3.677,3.677,0,0,1-2.32.65,10.08,10.08,0,0,1-1.9-.21,17.618,17.618,0,0,1-2.35-.67l0.03,4.33a21.457,21.457,0,0,0,2.64.56,18.227,18.227,0,0,0,2.52.18,7.576,7.576,0,0,0,4.85-1.29,4.873,4.873,0,0,0,1.58-4.01,6.569,6.569,0,0,0-.71-2.84,15.3,15.3,0,0,0-2.19-3.28h-3.56Zm36.54-14.36v1.17a7.7,7.7,0,0,1-1.76,5.17,5.515,5.515,0,0,1-4.36,2.07,4.567,4.567,0,0,1-3.25-1.1,3.947,3.947,0,0,1-1.17-3.03,3.721,3.721,0,0,1,1.46-3.19,7.213,7.213,0,0,1,4.33-1.09h4.75Zm5.81-14.91q-3.435-3.4-11.22-3.4a44.146,44.146,0,0,0-5.94.41,50.047,50.047,0,0,0-5.94,1.21v7.78a18.264,18.264,0,0,1,4.73-1.97,22.239,22.239,0,0,1,5.5-.65,9.971,9.971,0,0,1,5.34,1.12,3.935,3.935,0,0,1,1.72,3.55v0.8h-5.41q-7.425,0-10.91,2.62c-2.31,1.74-3.47,4.49-3.47,8.23a10.354,10.354,0,0,0,2.77,7.5,9.611,9.611,0,0,0,7.25,2.9,11.089,11.089,0,0,0,5.61-1.33,12.294,12.294,0,0,0,4.16-4.23v4.73h9.26v-18.2Q1710.21,1796.455,1706.76,1793.05Zm38.24-.01a8.882,8.882,0,0,0-7.53-3.39,10.321,10.321,0,0,0-5.16,1.32,14.809,14.809,0,0,0-4.41,4.12v-4.67h-9.17v31.9h9.17v-15.69a12.191,12.191,0,0,1,1.64-6.83,5.133,5.133,0,0,1,4.51-2.46,3.958,3.958,0,0,1,3.56,2.11,6.4,6.4,0,0,1,.57,2.3c0.11,1.05.17,2.95,0.17,5.7v14.87h9.23v-19.43Q1747.58,1796.425,1745,1793.04Zm11.92-11.68v9.06h-4.56v7.29h4.56v13.53q0,6.045,2.28,8.56t7.72,2.52h7.86v-7.29h-4.73c-1.57,0-2.62-.26-3.14-0.79a4.234,4.234,0,0,1-.79-3v-13.53h9.46v-7.29h-9.46v-9.06h-9.2Z"/>
  </g>
  <g id="Fleche_banque_banque" data-name="Fleche banque banque">
    <path id="Triangle_1_copie-2" data-name="Triangle 1 copie" class="cls-1" d="M1605.46,1210.66a19.994,19.994,0,0,1-33.99-.02l-57.01-92.08a20,20,0,0,1,17.02-30.53l114.14,0.08a20,20,0,0,1,16.97,30.55Z"/>
    <path id="Rectangle_arrondi_2_copie-2" data-name="Rectangle arrondi 2 copie" class="cls-1" d="M1575.83,722.061l26,0.017a10,10,0,0,1,9.99,10.007l-0.09,130a10,10,0,0,1-10.01,9.993l-26-.017a10,10,0,0,1-9.99-10.007l0.09-130A10,10,0,0,1,1575.83,722.061Z"/>
    <path id="Virement" class="cls-1" d="M1467.3,938.22l11.76,0.008,14.21-42.516-9.94-.006-10.13,31.381-10.15-31.395-9.91-.007Zm29.56,0.02,9.17,0.006,0.02-31.9-9.17-.006Zm0.03-36,9.17,0.007v-8.317l-9.17-.007v8.317Zm39.27,3.588c-0.68-.1-1.21-0.158-1.57-0.187s-0.69-.043-0.99-0.043a10.125,10.125,0,0,0-5.51,1.435,12.448,12.448,0,0,0-4.07,4.568l0.01-5.24-9.17-.007-0.03,31.9,9.17,0.007,0.01-14.7c0.01-3.133.64-5.539,1.92-7.219a6.416,6.416,0,0,1,5.44-2.517,9.811,9.811,0,0,1,2.41.3,11.484,11.484,0,0,1,2.4.927Zm29.18,4.32a13.856,13.856,0,0,0-10.84-4.536q-7.425,0-11.68,4.464t-4.25,12.273q0,7.947,4.31,12.351t12.11,4.409a30.985,30.985,0,0,0,6.51-.694,36.033,36.033,0,0,0,6.51-2.06l0.01-7.862a28.47,28.47,0,0,1-6.23,2.887,19.675,19.675,0,0,1-5.94.95,8.1,8.1,0,0,1-5.59-1.8,7.819,7.819,0,0,1-2.32-5.385l21.45,0.015v-2.906Q1569.39,914.678,1565.34,910.145Zm-17.31,8.7a8.1,8.1,0,0,1,2.1-4.8,5.832,5.832,0,0,1,4.31-1.663,5.008,5.008,0,0,1,4,1.783,6.888,6.888,0,0,1,1.52,4.687Zm51.46-11.614a9.364,9.364,0,0,0-10.1-.235,12.34,12.34,0,0,0-3.87,4.071V906.4l-9.23-.006-0.02,31.9,9.23,0.006,0.01-15.694a13.5,13.5,0,0,1,1.44-6.877,4.5,4.5,0,0,1,4.06-2.4,3.05,3.05,0,0,1,2.94,1.525q0.825,1.525.82,6.823l-0.01,16.634,9.23,0.006,0.01-15.666a14.053,14.053,0,0,1,1.48-6.92,4.45,4.45,0,0,1,4.02-2.39,3.131,3.131,0,0,1,2.92,1.526,10.109,10.109,0,0,1,.89,4.914c0,0.494,0,.873-0.01,1.139s-0.03.523-.05,0.769l-0.01,16.634,9.23,0.007,0.01-19.426c0.01-4.31-.86-7.6-2.58-9.857a8.928,8.928,0,0,0-7.55-3.394,9.487,9.487,0,0,0-5.27,1.548,13.25,13.25,0,0,0-4.13,4.512A9.764,9.764,0,0,0,1599.49,907.235Zm56.14,2.972a13.835,13.835,0,0,0-10.83-4.536q-7.44-.006-11.69,4.464t-4.25,12.273q0,7.947,4.31,12.35t12.12,4.409a30.96,30.96,0,0,0,6.5-.693,36.117,36.117,0,0,0,6.51-2.061l0.01-7.861a28.517,28.517,0,0,1-6.23,2.887,19.706,19.706,0,0,1-5.94.95,8.1,8.1,0,0,1-5.59-1.8,7.818,7.818,0,0,1-2.32-5.384l21.45,0.014v-2.9Q1659.68,914.738,1655.63,910.207Zm-17.31,8.7a8.162,8.162,0,0,1,2.1-4.8,5.828,5.828,0,0,1,4.31-1.663,4.991,4.991,0,0,1,4,1.783,6.939,6.939,0,0,1,1.53,4.686Zm54.6-9.818a8.9,8.9,0,0,0-7.54-3.395,10.227,10.227,0,0,0-5.15,1.321,14.7,14.7,0,0,0-4.42,4.113v-4.671l-9.17-.006-0.02,31.9,9.17,0.006,0.01-15.694a12.233,12.233,0,0,1,1.64-6.821,5.157,5.157,0,0,1,4.52-2.461,3.942,3.942,0,0,1,3.56,2.111,6.906,6.906,0,0,1,.57,2.307c0.11,1.045.17,2.944,0.16,5.7v11.706l-0.01,3.162,9.23,0.006,0.02-19.425Q1695.49,912.485,1692.92,909.093Zm11.92-11.67v9.058l-4.56,0-0.01,7.291,4.56,0-0.01,13.53q0,6.039,2.28,8.56c1.51,1.682,4.09,2.524,7.71,2.526l7.86,0.006,0.01-7.292-4.73,0c-1.58,0-2.62-.263-3.15-0.786a4.306,4.306,0,0,1-.78-3l0.01-13.529,9.46,0.006v-7.292l-9.45-.006v-9.058Z"/>
    <rect id="Rectangle_arrondi_3-4" data-name="Rectangle arrondi 3" x="1568" y="979" width="42" height="107" rx="10" ry="10"/>
  </g>
  <g id="Banque_client" data-name="Banque client">
    <path id="Banque_client-2" data-name="Banque client" class="cls-1" d="M1785.03,480.979l36.91,102.731H1349.51l36.91-102.731h398.61ZM1472.32,254.8h50.58V480.587h-50.58V254.8h0Zm-84.47,0h50.59V480.587h-50.59V254.8h0Zm343.81,0h50.59V480.587h-50.59V254.8h0Zm-84.47,0h50.59V480.587h-50.59V254.8h0Zm-61.44-131.927,197.31,131.937H1388.44Zm-45.07,231.963h10.56c-0.06,1.259-.1,2.48-0.13,3.663s-0.05,2.406-.05,3.663c0,1.037.02,2.054,0.05,3.053s0.07,1.98.13,2.941h-10.56v8.992h11.27a77.911,77.911,0,0,0,4.92,19.2,49.476,49.476,0,0,0,8.92,14.541,37,37,0,0,0,12.78,9.213,40.786,40.786,0,0,0,16.5,3.22q11.37,0,19.66-4.774a40.863,40.863,0,0,0,13.89-13.32l-4-5.883a11.6,11.6,0,0,0-1.99-2.331,3.307,3.307,0,0,0-2.18-.777,5.081,5.081,0,0,0-3.24,1.776,43.689,43.689,0,0,1-4.7,3.885,35.834,35.834,0,0,1-7.01,3.885,25.437,25.437,0,0,1-10.07,1.776q-11.445,0-18.5-7.659t-9.36-22.756h30.17a3.985,3.985,0,0,0,3.24-1.61,5.665,5.665,0,0,0,1.28-3.607v-3.775h-35.49c-0.06-.961-0.11-1.942-0.13-2.941s-0.05-2.016-.05-3.053v-3.719a35.747,35.747,0,0,1,.18-3.607h38.51a3.985,3.985,0,0,0,3.24-1.61,5.609,5.609,0,0,0,1.28-3.607v-3.886h-41.88q2.67-14.207,10.03-21.645t19.17-7.438a24.223,24.223,0,0,1,8.51,1.332,30.372,30.372,0,0,1,6.08,3c1.69,1.11,3.12,2.109,4.31,3a5.445,5.445,0,0,0,3.1,1.332,4.164,4.164,0,0,0,2.66-1,11.444,11.444,0,0,0,2.13-2.221l4-5.661a44.508,44.508,0,0,0-13.22-11.378q-7.38-4.05-17.84-4.051a42.856,42.856,0,0,0-16.55,3.108,39.172,39.172,0,0,0-13.18,8.936,49.5,49.5,0,0,0-9.45,14.1,71.055,71.055,0,0,0-5.37,18.593h-11.62v9.1Z"/>
    <path id="Banque_client-3" data-name="Banque  client" class="cls-1" d="M1499.95,605.894v-9h5.44a4.962,4.962,0,0,1,3.55,1.154,5.253,5.253,0,0,1,0,6.708,5,5,0,0,1-3.55,1.139h-5.44Zm0,18.6V613.357h5.78a6.414,6.414,0,0,1,4.49,1.381,5.363,5.363,0,0,1,1.5,4.144,5.489,5.489,0,0,1-1.5,4.216,6.374,6.374,0,0,1-4.49,1.4h-5.78Zm18.76-18.528a10.193,10.193,0,0,0,1.29-5.283q0-5.9-3.57-8.574t-11.55-2.677h-14.81v42.525h16.38q7.635,0,11.38-3.019t3.74-9.172a12.478,12.478,0,0,0-1.74-6.779,8.8,8.8,0,0,0-4.92-3.788A7.812,7.812,0,0,0,1518.71,605.965Zm28.58,11.636v1.167a7.708,7.708,0,0,1-1.76,5.17,5.519,5.519,0,0,1-4.36,2.065,4.557,4.557,0,0,1-3.25-1.1,3.951,3.951,0,0,1-1.17-3.033,3.73,3.73,0,0,1,1.46-3.19,7.168,7.168,0,0,1,4.32-1.082h4.76Zm5.81-14.911q-3.45-3.4-11.22-3.4a43.13,43.13,0,0,0-5.94.413,48.876,48.876,0,0,0-5.94,1.21v7.776a17.906,17.906,0,0,1,4.73-1.965,21.906,21.906,0,0,1,5.5-.655,9.966,9.966,0,0,1,5.34,1.125,3.923,3.923,0,0,1,1.72,3.546v0.8h-5.41q-7.44,0-10.91,2.62c-2.32,1.747-3.47,4.491-3.47,8.232a10.384,10.384,0,0,0,2.77,7.5,9.6,9.6,0,0,0,7.25,2.891,11.11,11.11,0,0,0,5.61-1.324,12.347,12.347,0,0,0,4.16-4.23v4.728h9.26v-18.2Q1556.55,606.095,1553.1,602.69Zm38.24-.015a8.883,8.883,0,0,0-7.53-3.389,10.293,10.293,0,0,0-5.16,1.324,14.573,14.573,0,0,0-4.41,4.116v-4.671h-9.18v31.9h9.18V616.262a12.244,12.244,0,0,1,1.63-6.822,5.16,5.16,0,0,1,4.52-2.464,3.942,3.942,0,0,1,3.56,2.108,6.906,6.906,0,0,1,.57,2.307c0.11,1.045.17,2.944,0.17,5.7v14.868h9.23V612.531Q1593.92,606.065,1591.34,602.675Zm29.08,6.409c1.04,1.6,1.55,3.912,1.55,6.95s-0.51,5.355-1.55,6.95a5.4,5.4,0,0,1-8.97,0c-1.04-1.6-1.55-3.912-1.55-6.95s0.51-5.355,1.55-6.95A5.4,5.4,0,0,1,1620.42,609.084Zm1.55,35.006h9.23V600.055h-9.23v4.728a13.023,13.023,0,0,0-4.18-4.13,10.747,10.747,0,0,0-14,3.347q-3.4,4.658-3.41,12.034t3.41,12.063a10.345,10.345,0,0,0,8.7,4.685,10.463,10.463,0,0,0,5.3-1.31,13.013,13.013,0,0,0,4.18-4.13V644.09Zm20.33-14.7a8.941,8.941,0,0,0,7.56,3.389,10.134,10.134,0,0,0,5.11-1.324,14.663,14.663,0,0,0,4.4-4.116v4.614h9.17v-31.9h-9.17v15.751a12.086,12.086,0,0,1-1.64,6.808,5.138,5.138,0,0,1-4.51,2.449,4,4,0,0,1-2.08-.541,4.1,4.1,0,0,1-1.48-1.538,6.731,6.731,0,0,1-.61-2.464,55.082,55.082,0,0,1-.19-5.54q0-1.31.03-5.227t0.03-6.508v-3.19h-9.23v19.482Q1639.69,626,1642.3,629.393Zm59.67-25.578a13.848,13.848,0,0,0-10.84-4.529q-7.44,0-11.68,4.472t-4.24,12.276q0,7.947,4.31,12.347t12.12,4.4a30.991,30.991,0,0,0,6.51-.7,36.056,36.056,0,0,0,6.51-2.065v-7.861a28.692,28.692,0,0,1-6.22,2.891,19.813,19.813,0,0,1-5.94.954,8.124,8.124,0,0,1-5.6-1.794,7.816,7.816,0,0,1-2.32-5.384h21.45V615.92Q1706.03,608.344,1701.97,603.815Zm-17.3,8.716a8.1,8.1,0,0,1,2.09-4.8,5.834,5.834,0,0,1,4.31-1.666,5.026,5.026,0,0,1,4.01,1.78,6.986,6.986,0,0,1,1.52,4.686h-11.93Zm-147.08,37.2a22.436,22.436,0,0,0-4.44-.441q-7.77,0-12.16,4.429t-4.39,12.319q0,7.89,4.39,12.319t12.16,4.429a22.737,22.737,0,0,0,4.44-.441,23.225,23.225,0,0,0,4.36-1.325v-8.345a11.516,11.516,0,0,1-3.56,2.107,11.784,11.784,0,0,1-4.1.712,7.447,7.447,0,0,1-5.98-2.492,12.4,12.4,0,0,1,0-13.928,7.45,7.45,0,0,1,5.98-2.492,11.486,11.486,0,0,1,3.92.683,13.9,13.9,0,0,1,3.74,2.108v-8.317A24.24,24.24,0,0,0,1537.59,649.727Zm12.28,32.229h9.17v-44.32h-9.17v44.32Zm17.97,0h9.17v-31.9h-9.17v31.9Zm0-36h9.17v-8.317h-9.17v8.317Zm42.57,7.862a13.848,13.848,0,0,0-10.84-4.529q-7.425,0-11.68,4.472t-4.24,12.276q0,7.947,4.32,12.347,4.3,4.4,12.11,4.4a30.991,30.991,0,0,0,6.51-.7,36.056,36.056,0,0,0,6.51-2.065v-7.861a28.692,28.692,0,0,1-6.22,2.891,19.714,19.714,0,0,1-5.94.954,8.124,8.124,0,0,1-5.6-1.794,7.816,7.816,0,0,1-2.32-5.384h21.45V665.92Q1614.47,658.344,1610.41,653.815Zm-17.3,8.716a8.1,8.1,0,0,1,2.09-4.8,5.841,5.841,0,0,1,4.32-1.666,5.019,5.019,0,0,1,4,1.78,6.986,6.986,0,0,1,1.52,4.686h-11.93Zm54.58-9.856a8.871,8.871,0,0,0-7.53-3.389,10.229,10.229,0,0,0-5.15,1.324,14.713,14.713,0,0,0-4.42,4.116v-4.671h-9.17v31.9h9.17V666.262a12.241,12.241,0,0,1,1.64-6.822,5.132,5.132,0,0,1,4.51-2.464,3.912,3.912,0,0,1,3.56,2.108,6.449,6.449,0,0,1,.57,2.307c0.12,1.045.17,2.944,0.17,5.7v14.868h9.23V662.531Q1650.27,656.065,1647.69,652.675ZM1659.61,641v9.058h-4.55v7.292h4.55v13.529q0,6.039,2.28,8.559t7.72,2.521h7.86v-7.292h-4.72q-2.37,0-3.15-.783a4.3,4.3,0,0,1-.79-3V657.347h9.46v-7.292h-9.46V641h-9.2Z"/>
  </g>
</svg>
